<svg xmlns="http://www.w3.org/2000/svg" version="1.1" xmlns:xlink="http://www.w3.org/1999/xlink" xmlns:svgjs="http://svgjs.com/svgjs" width="1366" height="4000" preserveAspectRatio="none" viewBox="0 0 1366 4000"><g mask="url(&quot;#SvgjsMask1376&quot;)" fill="none"><rect width="1366" height="4000" x="0" y="0" fill="url(#SvgjsLinearGradient1377)"></rect><path d="M1352.674,2730.033C1464.848,2728.313,1540.523,2625.147,1590.077,2524.498C1633.179,2436.952,1632.727,2338.272,1588.34,2251.371C1538.975,2154.724,1461.134,2063.445,1352.674,2059.71C1239.235,2055.804,1140.277,2133.826,1087.114,2234.112C1037.207,2328.257,1052.018,2438.04,1102.319,2531.975C1156.157,2632.515,1238.639,2731.781,1352.674,2730.033" fill="rgba(189, 21, 20, 0.41)" class="triangle-float1"></path><path d="M1022.2001294149063 672.4621283719416L749.1107584409597 842.7456403419695 995.167231680581 979.1369706272377z" fill="rgba(189, 21, 20, 0.41)" class="triangle-float3"></path><path d="M277.962,1105.359C398.01,1104.267,520.973,1069.065,584.191,967.005C650.463,860.016,648.178,721.708,581.859,614.748C518.737,512.945,397.728,475.193,277.962,473.117C153.582,470.961,21.763,498.761,-44.745,603.889C-115.194,715.248,-109.378,861.854,-38.069,972.664C28.198,1075.64,155.511,1106.473,277.962,1105.359" fill="rgba(189, 21, 20, 0.41)" class="triangle-float2"></path><path d="M409.9900360776432 2506.4784783138857L187.1386717950839 2836.8692127790223 740.3807705427798 2729.329842596445z" fill="rgba(189, 21, 20, 0.41)" class="triangle-float1"></path><path d="M816.189,2116.389C867.14,2117.792,918.563,2096.651,943.639,2052.276C968.382,2008.491,957.319,1955.282,931.683,1912.013C906.62,1869.71,865.354,1836.488,816.189,1837.162C767.989,1837.823,729.474,1872.974,706.054,1915.107C683.386,1955.888,677.944,2004.648,700.34,2045.579C723.624,2088.133,767.699,2115.054,816.189,2116.389" fill="rgba(189, 21, 20, 0.41)" class="triangle-float2"></path><path d="M1039.686,1399.894C1157.397,1396.82,1240.365,1297.939,1298.097,1195.312C1354.398,1095.229,1392.435,975.054,1334.424,875.952C1276.845,777.588,1153.658,754.912,1039.686,753.859C923.265,752.784,796.781,771.509,735.364,870.418C671.342,973.523,696.317,1104.223,756.795,1209.446C817.508,1315.077,917.892,1403.074,1039.686,1399.894" fill="rgba(189, 21, 20, 0.41)" class="triangle-float1"></path><path d="M157.98297317845376 2237.1567452514537L293.36856768767007 2142.3587314110973 83.47874967252727 1986.679346567451z" fill="rgba(189, 21, 20, 0.41)" class="triangle-float1"></path><path d="M1207.0829940586855 1874.6440121706653L991.3172150725225 1617.5043699050173 949.9433517930374 2090.4097911568283z" fill="rgba(189, 21, 20, 0.41)" class="triangle-float2"></path></g><defs><mask id="SvgjsMask1376"><rect width="1366" height="4000" fill="#ffffff"></rect></mask><linearGradient x1="-48.21%" y1="83.54%" x2="148.21%" y2="16.46%" gradientUnits="userSpaceOnUse" id="SvgjsLinearGradient1377"><stop stop-color="rgba(255, 255, 255, 1)" offset="0"></stop><stop stop-color="rgba(255, 255, 255, 1)" offset="1"></stop></linearGradient><style>
            @keyframes float1 {
                0%{transform: translate(0, 0)}
                50%{transform: translate(-10px, 0)}
                100%{transform: translate(0, 0)}
            }

            .triangle-float1 {
                animation: float1 5s infinite;
            }

            @keyframes float2 {
                0%{transform: translate(0, 0)}
                50%{transform: translate(-5px, -5px)}
                100%{transform: translate(0, 0)}
            }

            .triangle-float2 {
                animation: float2 4s infinite;
            }

            @keyframes float3 {
                0%{transform: translate(0, 0)}
                50%{transform: translate(0, -10px)}
                100%{transform: translate(0, 0)}
            }

            .triangle-float3 {
                animation: float3 6s infinite;
            }
        </style></defs></svg>